<svg width="37" height="35" viewBox="0 0 37 35" fill="none" xmlns="http://www.w3.org/2000/svg">
<path d="M4.625 13.125H32.375M26.2083 18.9604L10.7917 18.9583M15.9305 24.7924L10.7917 24.7917M10.7917 4.375V7.29167M26.2083 4.375V7.29167M9.55833 30.625H27.4417C29.1685 30.625 30.032 30.625 30.6915 30.3071C31.2716 30.0275 31.7434 29.5813 32.0389 29.0325C32.375 28.4086 32.375 27.5918 32.375 25.9583V11.9583C32.375 10.3248 32.375 9.5081 32.0389 8.8842C31.7434 8.33538 31.2716 7.88919 30.6915 7.60957C30.032 7.29167 29.1685 7.29167 27.4417 7.29167H9.55833C7.83151 7.29167 6.96809 7.29167 6.30853 7.60957C5.72836 7.88919 5.25667 8.33538 4.96107 8.8842C4.625 9.5081 4.625 10.3248 4.625 11.9583V25.9583C4.625 27.5918 4.625 28.4086 4.96107 29.0325C5.25667 29.5813 5.72836 30.0275 6.30853 30.3071C6.96809 30.625 7.8315 30.625 9.55833 30.625Z" stroke="#3146FF" stroke-opacity="0.9" stroke-width="2.4" stroke-linecap="round" stroke-linejoin="round"/>
</svg>
